# xmcd
#
# Track frame offsets: 
#        150
#        12042
#        21372
#        34945
#        45901
#        57499
#        69857
#        82433
#        93308
#        107093
#
# Disc length: 1585 seconds
#
# Revision: 0
# Processed by: cddbd v1.5.2PL0 Copyright (c) Steve Scherf et al.
# Submitted via: ExactAudioCopy v0.95b4
#
DISCID=7b062f0a
DTITLE=THE KENDALLS - COUNTRY MUSIC LEGENDS
DYEAR=1900
DGENRE=COUNTRY
TTITLE0=HEAVEN'S JUST A SIN AWAY
TTITLE1=BLUE BLUE DAY
TTITLE2=PITTSBURGH STEALERS
TTITLE3=I'D DANCE EVERY DANCE WITH YOU
TTITLE4=BYE BYE LOVE
TTITLE5=SWEET DESIRE
TTITLE6=I'M ALREADY BLUE
TTITLE7=YOU MAKE AN ANGEL WANT TO CHEAT
TTITLE8=THANK GOD FOR THE RADIO
TTITLE9=TEMPORARILY OUT OF ORDER
EXTD=
EXTT0=
EXTT1=
EXTT2=
EXTT3=
EXTT4=
EXTT5=
EXTT6=
EXTT7=
EXTT8=
EXTT9=
PLAYORDER=
